<svg xmlns="http://www.w3.org/2000/svg" viewBox="0 0 600 600" width="600" height="600" xmlns:c2pa="http://c2pa.org/manifest"><metadata><c2pa:manifest>AAAWgmp1bWIAAAAeanVtZGMycGEAEQAQgAAAqgA4m3EDYzJwYQAAABZcanVtYgAAAEdqdW1kYzJtYQARABCAAACqADibcQN1cm46YzJwYTpjZGIxZGU1Yi1jNzUzLTQ2YjgtOWVjYS03ODFlMmE0NTk2ZDIAAAADl2p1bWIAAAApanVtZGMyYXMAEQAQgAAAqgA4m3EDYzJwYS5hc3NlcnRpb25zAAAAALxqdW1iAAAARGp1bWRjYm9yABEAEIAAAKoAOJtxE2MycGEuaW5ncmVkaWVudC52MwAAAAAYYzJzaIeyeR1jQtyrEdrmey6jyCkAAABwY2JvcqNpZGM6Zm9ybWF0bWltYWdlL3N2Zyt4bWxqaW5zdGFuY2VJRHgseG1wOmlpZDplNTZjYjUyMi00YjZjLTRlMDUtOTMzZC0xOWQxYzJlMjg4ODBscmVsYXRpb25zaGlwaHBhcmVudE9mAAAB4mp1bWIAAABBanVtZGNib3IAEQAQgAAAqgA4m3ETYzJwYS5hY3Rpb25zLnYyAAAAABhjMnNo6QMZEzoF5OCkXSssT5wDVgAAAZljYm9yomdhY3Rpb25zgqJmYWN0aW9ua2MycGEub3BlbmVkanBhcmFtZXRlcnOha2luZ3JlZGllbnRzgaJjdXJseC1zZWxmI2p1bWJmPWMycGEuYXNzZXJ0aW9ucy9jMnBhLmluZ3JlZGllbnQudjNkaGFzaFgg7hauwJ7SUwZ19xghAhMQIZMvs6lbJWbj8Wf9X0iZnaikZmFjdGlvbngdY29tLmFudGhyb3BpYy5jbGF1ZGUucHJvdmlkZWRqcGFyYW1ldGVyc6F4H2NvbS5hbnRocm9waWMub3JpZ2luLWNvbmZpZGVuY2VndW5rbm93bmtkZXNjcmlwdGlvbnhmQ2xhdWRlIHByb3ZpZGVkIHRoaXMgZmlsZSBhdCB0aGUgcmVxdWVzdCBvZiBhIHVzZXIgYW5kIG1heSBoYXZlIGNyZWF0ZWQgb3IgbW9kaWZpZWQgdGhlIGZpbGUgY29udGVudHMubXNvZnR3YXJlQWdlbnShZG5hbWVmQ2xhdWRlcmFsbEFjdGlvbnNJbmNsdWRlZPUAAADIanVtYgAAAEBqdW1kY2JvcgARABCAAACqADibcRNjMnBhLmhhc2guZGF0YQAAAAAYYzJzaDXt3tfe6Ru9Ml7tjrJjR1oAAACAY2JvcqVjYWxnZnNoYTI1NmNwYWRNAAAAAAAAAAAAAAAAAGRoYXNoWCCS+nKpOFtmxXJZyfpiKAjv7R0BIadTtg0waeSFtuPjn2RuYW1lbmp1bWJmIG1hbmlmZXN0amV4Y2x1c2lvbnOBomVzdGFydBiWZmxlbmd0aBkeBAAAAj5qdW1iAAAAJ2p1bWRjMmNsABEAEIAAAKoAOJtxA2MycGEuY2xhaW0udjIAAAACD2Nib3KlY2FsZ2ZzaGEyNTZpc2lnbmF0dXJleE1zZWxmI2p1bWJmPS9jMnBhL3VybjpjMnBhOmNkYjFkZTViLWM3NTMtNDZiOC05ZWNhLTc4MWUyYTQ1OTZkMi9jMnBhLnNpZ25hdHVyZWppbnN0YW5jZUlEeCx4bXA6aWlkOjk0NWQ1MjkyLTZkY2MtNDJlZi1iNDhiLWYzNGY2MDRlMDU4MnJjcmVhdGVkX2Fzc2VydGlvbnODomN1cmx4LXNlbGYjanVtYmY9YzJwYS5hc3NlcnRpb25zL2MycGEuaW5ncmVkaWVudC52M2RoYXNoWCDuFq7AntJTBnX3GCECExAhky+zqVslZuPxZ/1fSJmdqKJjdXJseCpzZWxmI2p1bWJmPWMycGEuYXNzZXJ0aW9ucy9jMnBhLmFjdGlvbnMudjJkaGFzaFgg1sGetWDKQf7F7pun9YZXl8xJFRq0cc1XRZC0fJFFqU+iY3VybHgpc2VsZiNqdW1iZj1jMnBhLmFzc2VydGlvbnMvYzJwYS5oYXNoLmRhdGFkaGFzaFggO6WA/fRHO5NQrXn1JuSDUIGZndVmcarwLA5K1tEPfVV0Y2xhaW1fZ2VuZXJhdG9yX2luZm+jZG5hbWVvQW50aHJvcGljIEZpbGVzZ3ZlcnNpb25lMS4wLjBrc3BlY1ZlcnNpb25lMi40LjAAABA4anVtYgAAAChqdW1kYzJjcwARABCAAACqADibcQNjMnBhLnNpZ25hdHVyZQAAABAIY2JvctKEWQISogEmGCFZAgowggIGMIIBjaADAgECAhRA5aAK7sI50L64g/oGQgU9Z1UTADAKBggqhkjOPQQDAzBJMRcwFQYDVQQKEw5BbnRocm9waWMsIFBCQzEuMCwGA1UEAxMlQW50aHJvcGljIENvbnRlbnQgQ3JlZGVudGlhbHMgUm9vdCBDQTAeFw0yNjA4MDcxODQzNTZaFw0yODA4MDYxOTQzNTZaMEQxFzAVBgNVBAoTDkFudGhyb3BpYywgUEJDMSkwJwYDVQQDEyBBbnRocm9waWMgQ2xhdWRlIENvbnRlbnQgU2lnbmluZzBZMBMGByqGSM49AgEGCCqGSM49AwEHA0IABJh6CmvLUBgFFNU0vUKlOVtE6djd17L5SuwX0LemFisBM3dkd/3cyjxFA3Qo5S46fX0/ihY0VZ7mfb9KF703t5OjWDBWMA4GA1UdDwEB/wQEAwIHgDAVBgNVHSUEDjAMBgorBgEEAYPoXgIBMAwGA1UdEwEB/wQCMAAwHwYDVR0jBBgwFoAUzlHiBIFOZFsj+OPEz5o+nMHXXMIwCgYIKoZIzj0EAwMDZwAwZAIwMXMdFJ4BetLLVY7ORuE9noqbbAZOZn/aArXyTwFAZfKrPzxF2vPoJNf1+UCdg1XGAjBwX1zd9WGqYkqmL5SFqw1QySjr1zJfpJM9+1rdDwSPLMOPOjKuiXjoU/pUUeG9RwmhY3BhZFkNngAAAAAAAAAAAAAAAAAAAAAAAAAAAAAAAAAAAAAAAAAAAAAAAAAAAAAAAAAAAAAAAAAAAAAAAAAAAAAAAAAAAAAAAAAAAAAAAAAAAAAAAAAAAAAAAAAAAAAAAAAAAAAAAAAAAAAAAAAAAAAAAAAAAAAAAAAAAAAAAAAAAAAAAAAAAAAAAAAAAAAAAAAAAAAAAAAAAAAAAAAAAAAAAAAAAAAAAAAAAAAAAAAAAAAAAAAAAAAAAAAAAAAAAAAAAAAAAAAAAAAAAAAAAAAAAAAAAAAAAAAAAAAAAAAAAAAAAAAAAAAAAAAAAAAAAAAAAAAAAAAAAAAAAAAAAAAAAAAAAAAAAAAAAAAAAAAAAAAAAAAAAAAAAAAAAAAAAAAAAAAAAAAAAAAAAAAAAAAAAAAAAAAAAAAAAAAAAAAAAAAAAAAAAAAAAAAAAAAAAAAAAAAAAAAAAAAAAAAAAAAAAAAAAAAAAAAAAAAAAAAAAAAAAAAAAAAAAAAAAAAAAAAAAAAAAAAAAAAAAAAAAAAAAAAAAAAAAAAAAAAAAAAAAAAAAAAAAAAAAAAAAAAAAAAAAAAAAAAAAAAAAAAAAAAAAAAAAAAAAAAAAAAAAAAAAAAAAAAAAAAAAAAAAAAAAAAAAAAAAAAAAAAAAAAAAAAAAAAAAAAAAAAAAAAAAAAAAAAAAAAAAAAAAAAAAAAAAAAAAAAAAAAAAAAAAAAAAAAAAAAAAAAAAAAAAAAAAAAAAAAAAAAAAAAAAAAAAAAAAAAAAAAAAAAAAAAAAAAAAAAAAAAAAAAAAAAAAAAAAAAAAAAAAAAAAAAAAAAAAAAAAAAAAAAAAAAAAAAAAAAAAAAAAAAAAAAAAAAAAAAAAAAAAAAAAAAAAAAAAAAAAAAAAAAAAAAAAAAAAAAAAAAAAAAAAAAAAAAAAAAAAAAAAAAAAAAAAAAAAAAAAAAAAAAAAAAAAAAAAAAAAAAAAAAAAAAAAAAAAAAAAAAAAAAAAAAAAAAAAAAAAAAAAAAAAAAAAAAAAAAAAAAAAAAAAAAAAAAAAAAAAAAAAAAAAAAAAAAAAAAAAAAAAAAAAAAAAAAAAAAAAAAAAAAAAAAAAAAAAAAAAAAAAAAAAAAAAAAAAAAAAAAAAAAAAAAAAAAAAAAAAAAAAAAAAAAAAAAAAAAAAAAAAAAAAAAAAAAAAAAAAAAAAAAAAAAAAAAAAAAAAAAAAAAAAAAAAAAAAAAAAAAAAAAAAAAAAAAAAAAAAAAAAAAAAAAAAAAAAAAAAAAAAAAAAAAAAAAAAAAAAAAAAAAAAAAAAAAAAAAAAAAAAAAAAAAAAAAAAAAAAAAAAAAAAAAAAAAAAAAAAAAAAAAAAAAAAAAAAAAAAAAAAAAAAAAAAAAAAAAAAAAAAAAAAAAAAAAAAAAAAAAAAAAAAAAAAAAAAAAAAAAAAAAAAAAAAAAAAAAAAAAAAAAAAAAAAAAAAAAAAAAAAAAAAAAAAAAAAAAAAAAAAAAAAAAAAAAAAAAAAAAAAAAAAAAAAAAAAAAAAAAAAAAAAAAAAAAAAAAAAAAAAAAAAAAAAAAAAAAAAAAAAAAAAAAAAAAAAAAAAAAAAAAAAAAAAAAAAAAAAAAAAAAAAAAAAAAAAAAAAAAAAAAAAAAAAAAAAAAAAAAAAAAAAAAAAAAAAAAAAAAAAAAAAAAAAAAAAAAAAAAAAAAAAAAAAAAAAAAAAAAAAAAAAAAAAAAAAAAAAAAAAAAAAAAAAAAAAAAAAAAAAAAAAAAAAAAAAAAAAAAAAAAAAAAAAAAAAAAAAAAAAAAAAAAAAAAAAAAAAAAAAAAAAAAAAAAAAAAAAAAAAAAAAAAAAAAAAAAAAAAAAAAAAAAAAAAAAAAAAAAAAAAAAAAAAAAAAAAAAAAAAAAAAAAAAAAAAAAAAAAAAAAAAAAAAAAAAAAAAAAAAAAAAAAAAAAAAAAAAAAAAAAAAAAAAAAAAAAAAAAAAAAAAAAAAAAAAAAAAAAAAAAAAAAAAAAAAAAAAAAAAAAAAAAAAAAAAAAAAAAAAAAAAAAAAAAAAAAAAAAAAAAAAAAAAAAAAAAAAAAAAAAAAAAAAAAAAAAAAAAAAAAAAAAAAAAAAAAAAAAAAAAAAAAAAAAAAAAAAAAAAAAAAAAAAAAAAAAAAAAAAAAAAAAAAAAAAAAAAAAAAAAAAAAAAAAAAAAAAAAAAAAAAAAAAAAAAAAAAAAAAAAAAAAAAAAAAAAAAAAAAAAAAAAAAAAAAAAAAAAAAAAAAAAAAAAAAAAAAAAAAAAAAAAAAAAAAAAAAAAAAAAAAAAAAAAAAAAAAAAAAAAAAAAAAAAAAAAAAAAAAAAAAAAAAAAAAAAAAAAAAAAAAAAAAAAAAAAAAAAAAAAAAAAAAAAAAAAAAAAAAAAAAAAAAAAAAAAAAAAAAAAAAAAAAAAAAAAAAAAAAAAAAAAAAAAAAAAAAAAAAAAAAAAAAAAAAAAAAAAAAAAAAAAAAAAAAAAAAAAAAAAAAAAAAAAAAAAAAAAAAAAAAAAAAAAAAAAAAAAAAAAAAAAAAAAAAAAAAAAAAAAAAAAAAAAAAAAAAAAAAAAAAAAAAAAAAAAAAAAAAAAAAAAAAAAAAAAAAAAAAAAAAAAAAAAAAAAAAAAAAAAAAAAAAAAAAAAAAAAAAAAAAAAAAAAAAAAAAAAAAAAAAAAAAAAAAAAAAAAAAAAAAAAAAAAAAAAAAAAAAAAAAAAAAAAAAAAAAAAAAAAAAAAAAAAAAAAAAAAAAAAAAAAAAAAAAAAAAAAAAAAAAAAAAAAAAAAAAAAAAAAAAAAAAAAAAAAAAAAAAAAAAAAAAAAAAAAAAAAAAAAAAAAAAAAAAAAAAAAAAAAAAAAAAAAAAAAAAAAAAAAAAAAAAAAAAAAAAAAAAAAAAAAAAAAAAAAAAAAAAAAAAAAAAAAAAAAAAAAAAAAAAAAAAAAAAAAAAAAAAAAAAAAAAAAAAAAAAAAAAAAAAAAAAAAAAAAAAAAAAAAAAAAAAAAAAAAAAAAAAAAAAAAAAAAAAAAAAAAAAAAAAAAAAAAAAAAAAAAAAAAAAAAAAAAAAAAAAAAAAAAAAAAAAAAAAAAAAAAAAAAAAAAAAAAAAAAAAAAAAAAAAAAAAAAAAAAAAAAAAAAAAAAAAAAAAAAAAAAAAAAAAAAAAAAAAAAAAAAAAAAAAAAAAAAAAAAAAAAAAAAAAAAAAAAAAAAAAAAAAAAAAAAAAAAAAAAAAAAAAAAAAAAAAAAAAAAAAAAAAAAAAAAAAAAAAAAAAAAAAAAAAAAAAAAAAAAAAAAAAAAAAAAAAAAAAAAAAAAAAAAAAAAAAAAAAAAAAAAAAAAAAAAAAAAAAAAAAAAAAAAAAAAAAAAAAAAAAAAAAAAAAAAAAAAAAAAAAAAAAAAAAAAAAAAAAAAAAAAAAAAAAAAAAAAAAAAAAAAAAAAAAAAAAAAAAAAAAAAAAAAAAAAAAAAAAAAAAAAAAAAAAAAAAAAAAAAAAAAAAAAAAAAAAAAAAAAAAAAAAAAAAAAAAAAAAAAAAAAAAAAAAAAAAAAAAAAAAAAAAAAAAAAAAAAAAAAAAAAAAAAAAAAAAAAAAAAAAAAAAAAAAAAAAAAAAAAAAAAAAAAAAAAAAAAAAAAAAAAAAAAAAAAAAAAAAAAAAAAAAAAAAAAAAAAAAAAAAAAAAAAAAAAAAAAAAAAAAAAAAAAAAAAAAAAAAAAAAAAAAAAAAAAAAAAAAAAAAAAAAAAAAAAAAAAAAAAAAAAAAAAAAAAAAAAAAAAAAAAAAAAAAAAAAAAAAAAAAAAAAAAAAAAAAAAAAAAAAAAAAAAAAAAAAAAAAAAAAAAAAAAAAAAAAAAAAAAAAAAAAAAAAAAAAAAAAAAAAAAAAAAAAAAAAAAAAAAAAAAAAAAAAAAAAAAAAAAAAAAAAAAAAAAAAAAAAAAAAAAAAAAAAAAAAAAAAAAAAAAAAAAAAAAAAAAAAAAAAAAAAAAAAAAAAAAAAAAAAAAAAAAAAAAAAAAAAAAAAAAAAAAAAAAAAAAAAAAAAAAAAAAAAAAAAAAAAAAAAAAAAAAAAAAAAAAAAAAAAAAAAAAAAAAAAAAAAAAAAAAAAAAAAAAAAAAAAAAAAAAAAAAAAAAAAAAAAAAAAAAAAAAAAAAAAAAAAAAAAAAAAAAAAAAAAAAAAAAAAAAAAAAAAAAAAAAAAAAAAAAAAAAAAAAAAAAAAAAAAAAAAAAAAAAAAAAAAAAAAAAAAAAAAAAAAAAAAAAAAAAAAAAAAAAAAAAAAAAAAAAAAAAAAAAAAAAAAAAAAAAAAAAAAAAAAAAAAAAAAAAAAAAAAAAAAAAAAAAAAAAAAAAAAAAAAAAAAAAAAAAAAAAAAAAAAAAAAAAAAAAAAAAAAAAAAAAAAAAAAAAAAAAAAAAAAAAAAAAAAAAAAAAAAAAAAAAAAAAAAAAAAAAAAAAAAAAAAAAAAAAAAAAAAAAAAAAAAAAAAAAAAAAAAAAAAAAAAAAAAAAAAAAAAAAAAAAAAAAAAAAAAAAAAAAAAAAAAAAAAAAAAAAAAAAAAAAAAAAAAAAAAAAAAAAAAAAAAAAAAAAAAAAAAAAAAAAAAAAAAAAAAAAAAAAAAAAAAAAAAAAAAAAAAAAAAAAAAAAAAAAAAAAAAAAAAAAAAAAAAAAAAPZYQDFkUerufostq95Dln0ccmRFJirp9zTIIVyAEI5qJ1azx8JE3/izJLkXopYhT3KOgI3EHyvT9rz8zLHyvJ+41SU=</c2pa:manifest></metadata><title>Greysie - cheesemonger (sticker)</title><path d="M118.6 420.4 117.7 423.5 117 427.1 116.4 432.7 116.5 436.4 116.9 440.2 117.7 443.8 118.5 446.2 119.9 449.7 121.3 452.3 122.7 454.4 124.9 457.3 127.4 460.1 130.2 462.5 134.6 465.8 137.8 467.6 141.2 469.3 146.2 471.3 149.9 472.5 154.3 473.7 169.2 477.4 184.2 480.7 197.8 483.3 212.8 485.7 227.2 487.6 225.7 498.5 220.2 499.8 214.1 502 209.5 504.2 205.3 507 201.6 510.2 199.9 512.1 198.4 514.1 197.1 516 195.9 518.3 194.9 520.7 194.3 522.9 193.6 527.1 193.5 529.5 193.7 531.8 194 534.1 194.6 536.4 196.1 540.1 197.2 542.1 198.6 544.2 201.6 547.8 205.3 551 209.2 553.6 211.1 554.4 212.6 554.9 216 555.5 258.8 555.4 260.2 555.2 262.8 554.5 265.4 553.2 268.2 551.3 270.1 549.9 273.4 546.7 275.2 544.5 276.8 542.1 278.1 539.8 279.1 537.3 279.9 534.6 280.3 531.9 280.5 529.1 280.4 526.6 279.9 523.5 279 520.4 277.7 517.5 275.7 514.1 273.8 511.8 271.7 509.6 268.7 507 265.7 505 266.5 498.1 267.8 490.7 278.2 491 287.7 491 307.1 490.5 308.3 496.5 309.2 503 306.3 505 302.9 508 300 511.2 298.2 513.9 296.6 517 295.3 520.9 294.7 524.2 294.5 527.5 294.8 530.7 295.6 534.4 296.9 537.7 298.4 540.4 300.7 543.7 302.9 546 306.1 548.8 308.9 550.8 310.9 551.9 313.4 552.9 314.9 553.3 317.7 553.5 359 553.5 361.1 553.3 362.6 552.9 363.9 552.4 366.2 551.4 369.7 549 373.6 545.6 376.6 541.9 377.9 540 379.1 537.8 380 535.6 380.6 533.4 381.4 529.4 381.5 527.1 381.4 524.7 380.6 520.6 380 518.4 379.1 516.2 377.9 514 376.6 512.1 375.1 510.1 373.4 508.2 369.7 505 365.5 502.2 360.9 500 354.8 497.8 349.2 496.5 347.7 487 358.6 485.5 369.5 483.8 380.4 481.8 391.3 479.6 404.9 476.5 418.4 473 423.8 471.3 428 469.6 432.2 467.6 435.8 465.5 467.8 444.5 470.8 442.4 474.1 439.5 477.1 436.3 479.8 432.7 482.1 428.7 483.5 425.2 484.3 422.8 485.1 419.2 485.4 416.2 485.6 413.9 485.5 410.4 485.1 406.7 484.4 403.1 483.1 398.4 481.3 393.7 468.1 366.5 472.5 364.1 477.7 360.8 481.1 358.3 485.6 354.6 488.7 351.7 492.9 347.2 495.3 344.3 498.8 339.5 501 336.1 504.3 330.2 506.9 324.4 509.1 318.5 510.4 314.6 511.9 308.2 513 301.9 513.5 296.7 516 295.2 518.2 293.6 520.4 291.6 522 289.9 524.8 286.1 526 284.1 527.2 281.6 528.5 277.8 529.3 273.5 529.6 270.1 529.6 264.5 544.8 232.9 557.7 194.5 558.2 190.8 557.9 170.6 557.7 168.9 557.1 166.5 555.7 163.1 554.3 161.1 553.1 159.7 551.3 158 549.7 156.9 546.6 155.3 544.9 154.8 542.7 154.4 539.9 152.7 536.7 151.5 534.9 151.2 532.5 151 528.8 151.3 526.5 152 524.7 152.7 523.2 153.5 521.2 154.9 506.4 169.9 504.8 171.8 503.7 173.5 486.9 209 480.8 227.2 477.3 227.8 473.3 229 470 230.3 466.6 232.1 463.7 234.1 461 236.3 458.7 238.9 456.7 241.7 454.9 245.4 453.8 249.1 453.3 252.8 453.5 256.7 454.1 259.5 455.2 262.6 456.6 265.2 458.4 267.7 458.6 272.6 459.2 276.5 459.8 278.7 460.7 281.3 462.9 285.7 458.8 296 458 298.3 457.5 300.4 457.1 302.7 457.1 306.8 457.7 310.6 459 314.5 460.8 317.9 463.2 321.1 460.7 323.8 456.9 327.1 454.1 329.1 450.7 331 350.2 126.3 348 122 345.4 117.7 343.1 114.4 340.6 111.3 338.1 108.6 336.2 107 333.7 105 330.2 102.9 328 101.8 325.1 100.8 322.3 100.1 318.5 99.6 315.5 99.6 312.3 100 309.6 100.6 306.6 101.6 304.3 102.6 301.7 104.1 267.5 126.6 264.6 129 261.4 132.3 258.6 135.8 256.1 139.4 253.9 143.3 251.8 147.3 203.2 246.4 202.4 248.3 201.9 250.2 201.6 252.2 201.4 254.2 201.5 256.2 201.8 258.2 202.2 260.1 202.9 262 199.2 263.5 197.4 264.5 195.8 265.7 194.3 267 193 268.5 191 271.3 158.5 337.5 150.7 338.4 146 339.2 141.4 340.3 137.3 341.5 133.1 342.9 129.1 344.6 125.2 346.5 121.6 348.6 118.1 350.9 114.9 353.5 112.3 355.8 108.4 360.1 106.3 362.9 104.4 365.9 102.5 369.6 101 373.4 100 377.4 99.4 380.8 99.1 385 99.1 387.2 99.4 390.6 100.2 394.7 101.2 398.1 102.8 402 104.7 405.7 107 409.1 109.6 412.4 112.5 415.4 115.6 418.1Z" fill="#06273A" fill-rule="evenodd" opacity=".18"/><path d="M118.6 415.4 117.7 418.5 117 422.1 116.4 427.7 116.5 431.4 116.9 435.2 117.7 438.8 118.5 441.2 119.9 444.7 121.3 447.3 122.7 449.4 124.9 452.3 127.4 455.1 130.2 457.5 134.6 460.8 137.8 462.6 141.2 464.3 146.2 466.3 149.9 467.5 154.3 468.7 169.2 472.4 184.2 475.7 197.8 478.3 212.8 480.7 227.2 482.6 225.7 493.5 220.2 494.8 214.1 497 209.5 499.2 205.3 502 201.6 505.2 199.9 507.1 198.4 509.1 197.1 511 195.9 513.3 194.9 515.7 194.3 517.9 193.6 522.1 193.5 524.5 193.7 526.8 194 529.1 194.6 531.4 196.1 535.1 197.2 537.1 198.6 539.2 201.6 542.8 205.3 546 209.2 548.6 211.1 549.4 212.6 549.9 216 550.5 258.8 550.4 260.2 550.2 262.8 549.5 265.4 548.2 268.2 546.3 270.1 544.9 273.4 541.7 275.2 539.5 276.8 537.1 278.1 534.8 279.1 532.3 279.9 529.6 280.3 526.9 280.5 524.1 280.4 521.6 279.9 518.5 279 515.4 277.7 512.5 275.7 509.1 273.8 506.8 271.7 504.6 268.7 502 265.7 500 266.5 493.1 267.8 485.7 278.2 486 287.7 486 307.1 485.5 308.3 491.5 309.2 498 306.3 500 302.9 503 300 506.2 298.2 508.9 296.6 512 295.3 515.9 294.7 519.2 294.5 522.5 294.8 525.7 295.6 529.4 296.9 532.7 298.4 535.4 300.7 538.7 302.9 541 306.1 543.8 308.9 545.8 310.9 546.9 313.4 547.9 314.9 548.3 317.7 548.5 359 548.5 361.1 548.3 362.6 547.9 363.9 547.4 366.2 546.4 369.7 544 373.6 540.6 376.6 536.9 377.9 535 379.1 532.8 380 530.6 380.6 528.4 381.4 524.4 381.5 522.1 381.4 519.7 380.6 515.6 380 513.4 379.1 511.2 377.9 509 376.6 507.1 375.1 505.1 373.4 503.2 369.7 500 365.5 497.2 360.9 495 354.8 492.8 349.2 491.5 347.7 482 358.6 480.5 369.5 478.8 380.4 476.8 391.3 474.6 404.9 471.5 418.4 468 423.8 466.3 428 464.6 432.2 462.6 435.8 460.5 467.8 439.5 470.8 437.4 474.1 434.5 477.1 431.3 479.8 427.7 482.1 423.7 483.5 420.2 484.3 417.8 485.1 414.2 485.4 411.2 485.6 408.9 485.5 405.4 485.1 401.7 484.4 398.1 483.1 393.4 481.3 388.7 468.1 361.5 472.5 359.1 477.7 355.8 481.1 353.3 485.6 349.6 488.7 346.7 492.9 342.2 495.3 339.3 498.8 334.5 501 331.1 504.3 325.2 506.9 319.4 509.1 313.5 510.4 309.6 511.9 303.2 513 296.9 513.5 291.7 516 290.2 518.2 288.6 520.4 286.6 522 284.9 524.8 281.1 526 279.1 527.2 276.6 528.5 272.8 529.3 268.5 529.6 265.1 529.6 259.5 544.8 227.9 557.7 189.5 558.2 185.8 557.9 165.6 557.7 163.9 557.1 161.5 555.7 158.1 554.3 156.1 553.1 154.7 551.3 153 549.7 151.9 546.6 150.3 544.9 149.8 542.7 149.4 539.9 147.7 536.7 146.5 534.9 146.2 532.5 146 528.8 146.3 526.5 147 524.7 147.7 523.2 148.5 521.2 149.9 506.4 164.9 504.8 166.8 503.7 168.5 486.9 204 480.8 222.2 477.3 222.8 473.3 224 470 225.3 466.6 227.1 463.7 229.1 461 231.3 458.7 233.9 456.7 236.7 454.9 240.4 453.8 244.1 453.3 247.8 453.5 251.7 454.1 254.5 455.2 257.6 456.6 260.2 458.4 262.7 458.6 267.6 459.2 271.5 459.8 273.7 460.7 276.3 462.9 280.7 458.8 291 458 293.3 457.5 295.4 457.1 297.7 457.1 301.8 457.7 305.6 459 309.5 460.8 312.9 463.2 316.1 460.7 318.8 456.9 322.1 454.1 324.1 450.7 326 350.2 121.3 348 117 345.4 112.7 343.1 109.4 340.6 106.3 338.1 103.6 336.2 102 333.7 100 330.2 97.9 328 96.8 325.1 95.8 322.3 95.1 318.5 94.6 315.5 94.6 312.3 95 309.6 95.6 306.6 96.6 304.3 97.6 301.7 99.1 267.5 121.6 264.6 124 261.4 127.3 258.6 130.8 256.1 134.4 253.9 138.3 251.8 142.3 203.2 241.4 202.4 243.3 201.9 245.2 201.6 247.2 201.4 249.2 201.5 251.2 201.8 253.2 202.2 255.1 202.9 257 199.2 258.5 197.4 259.5 195.8 260.7 194.3 262 193 263.5 191 266.3 158.5 332.5 150.7 333.4 146 334.2 141.4 335.3 137.3 336.5 133.1 337.9 129.1 339.6 125.2 341.5 121.6 343.6 118.1 345.9 114.9 348.5 112.3 350.8 108.4 355.1 106.3 357.9 104.4 360.9 102.5 364.6 101 368.4 100 372.4 99.4 375.8 99.1 380 99.1 382.2 99.4 385.6 100.2 389.7 101.2 393.1 102.8 397 104.7 400.7 107 404.1 109.6 407.4 112.5 410.4 115.6 413.1Z" fill="#FFFFFF" fill-rule="evenodd"/><path d="M176 352C110 348 100 398 152 408" fill="none" stroke="#06273A" stroke-width="11.5" stroke-linecap="round" stroke-linejoin="round"/><path d="M432 350C470 350 496 318 494 280" fill="none" stroke="#06273A" stroke-width="11.5" stroke-linecap="round" stroke-linejoin="round"/><path d="M252 446C252 476 245 482 245 512" fill="none" stroke="#06273A" stroke-width="12.5" stroke-linecap="round" stroke-linejoin="round"/><path d="M322 444C322 474 330 480 330 510" fill="none" stroke="#06273A" stroke-width="12.5" stroke-linecap="round" stroke-linejoin="round"/><path d="M216.7 535 257.3 535 259.2 533.7 261.2 532 262.8 530.2 263.5 529.1 264.4 527.2 264.9 525.1 265 523.9 264.7 521.9 264 519.8 262.8 517.8 261.2 516 259.2 514.3 255.4 512 252.5 510.7 249.4 509.7 244.2 508.5 240.6 508.1 237 508 231.5 508.3 228 508.8 224.6 509.6 221.5 510.7 218.6 512 214.8 514.3 212.8 516 211.2 517.8 210 519.8 209.5 520.9 209.1 522.9 209.1 525 209.3 526.1 210 528.2 211.2 530.2 212.7 532 214.8 533.7Z" fill="#06273A" fill-rule="evenodd" stroke="#06273A" stroke-width="3" stroke-linejoin="round"/><path d="M216.7 535 257.3 535 259.2 533.7 261.3 532 262.9 530.1 264.1 528 209.9 528 211.1 530.1 212.7 532 214.8 533.7Z" fill="#FFF6E3" fill-rule="evenodd" stroke="#06273A" stroke-width="2.6" stroke-linejoin="round"/><path d="M235.2 517.4 234.9 518.1 234.3 518.6 233.5 519 232.5 519.3 229.9 519.5 227.1 519 224.4 518 222.2 516.6 221.5 515.8 221 515 220.7 514.3 220.8 513.6 221.1 512.9 221.7 512.4 222.5 512 223.5 511.7 226.1 511.5 228.9 512 231.6 513 233.8 514.4 234.5 515.2 235 516 235.3 516.7Z" fill="#FFFFFF" fill-rule="evenodd" opacity=".35"/><path d="M317.7 533 358.3 533 360.2 531.7 362.2 530 363.8 528.2 364.5 527.1 365.4 525.2 365.9 523.1 366 521.9 365.7 519.9 365 517.8 363.8 515.8 362.2 514 360.2 512.3 356.4 510 353.5 508.7 350.4 507.7 345.2 506.5 341.6 506.1 338 506 332.5 506.3 329 506.8 325.6 507.6 322.5 508.7 319.6 510 315.8 512.3 313.8 514 312.2 515.8 311 517.8 310.5 518.9 310.1 520.9 310.1 523 310.3 524.1 311 526.2 312.2 528.2 313.7 530 315.8 531.7Z" fill="#06273A" fill-rule="evenodd" stroke="#06273A" stroke-width="3" stroke-linejoin="round"/><path d="M317.7 533 358.3 533 360.2 531.7 362.3 530 363.9 528.1 365.1 526 310.9 526 312.1 528.1 313.7 530 315.8 531.7Z" fill="#FFF6E3" fill-rule="evenodd" stroke="#06273A" stroke-width="2.6" stroke-linejoin="round"/><path d="M354.2 511.6 354.3 512.3 354 513 353.5 513.8 352.8 514.6 350.6 516 347.9 517 345.1 517.5 342.5 517.3 341.5 517 340.7 516.6 340.1 516.1 339.8 515.4 339.7 514.7 340 514 340.5 513.2 341.2 512.4 343.4 511 346.1 510 348.9 509.5 351.5 509.7 352.5 510 353.3 510.4 353.9 510.9Z" fill="#FFFFFF" fill-rule="evenodd" opacity=".35"/><path d="M315.3 114.7 313.6 115.3 311.9 116.3 279.9 137.3 278.2 138.6 276.5 140.4 274.8 142.5 273.1 145 269.7 151.1 221.4 249.6 223.6 251.4 225.5 253.7 226.9 256.3 227.5 258.1 228 261 227.9 264 227.5 265.9 226.5 268.6 225.5 270.3 223.6 272.6 221.3 274.5 218.7 275.9 215.9 276.7 214 277 211 276.9 208.3 276.3 138.9 418 137.9 420.6 137.2 423.1 136.7 425.5 136.4 427.8 136.4 429.9 136.7 432 137.2 434 137.9 435.9 138.9 437.7 140.1 439.4 141.6 440.9 143.3 442.4 145.2 443.8 147.4 445.1 149.9 446.3 155.5 448.3 171.2 452.3 186.9 455.8 200 458.4 211.7 460.3 223.5 462 236.6 463.5 248.4 464.6 260.1 465.3 271.9 465.8 283.7 466 295.5 465.9 307.2 465.5 319 464.8 330.8 463.8 341.3 462.7 353 461.1 364.8 459.3 375.3 457.4 387 455 398.8 452.3 411.9 449 417.5 447.3 422.6 445.1 424.8 443.8 456.8 422.8 458.7 421.4 460.4 419.9 461.9 418.4 463.1 416.7 464.1 414.9 464.8 413 465.3 411 465.6 408.9 465.6 406.8 465.3 404.5 464.8 402.1 464.1 399.6 461.9 394.3 332.3 130.1 330.6 126.8 328.9 124 327.2 121.5 325.5 119.4 323.8 117.6 322.1 116.3 320.4 115.3 318.7 114.7 317 114.6Z" fill="#06273A" fill-rule="evenodd" stroke="#06273A" stroke-width="12" stroke-linejoin="round"/><path d="M313.6 115.3 311.9 116.3 279.9 137.3 281.6 136.3 283.3 135.7 285 135.6 286.7 135.7 288.4 136.3 290.1 137.3 291.8 138.6 293.5 140.4 295.2 142.5 296.9 145 298.6 147.8 429.9 415.3 432.1 420.6 432.8 423.1 433.3 425.5 433.6 427.8 433.6 429.9 433.3 432 432.8 434 432.1 435.9 431.1 437.7 429.9 439.4 428.4 440.9 426.7 442.4 424.8 443.8 456.8 422.8 458.7 421.4 460.4 419.9 461.9 418.4 463.1 416.7 464.1 414.9 464.8 413 465.3 411 465.6 408.9 465.6 406.8 465.3 404.5 464.8 402.1 464.1 399.6 461.9 394.3 330.6 126.8 328.9 124 327.2 121.5 325.5 119.4 323.8 117.6 322.1 116.3 320.4 115.3 318.7 114.7 317 114.6 315.3 114.7Z" fill="#CF982C" fill-rule="evenodd"/><path d="M429.9 415.3 432.1 420.6 432.8 423.1 433.3 425.5 433.6 427.8 433.6 429.9 433.3 432 432.8 434 432.1 435.9 431.1 437.7 429.9 439.4 428.4 440.9 426.4 442.7 458.7 421.4 460.4 419.9 461.9 418.4 463.1 416.7 464.1 414.9 464.8 413 465.3 411 465.6 408.9 465.6 406.8 465.3 404.5 464.8 402.1 463.1 397 460 390.4 457.4 392.4 457.3 392.1 456.1 393.2 454.7 394 454.6 393.9 454.1 394.3 452.1 395.3 449.5 396.3 446.5 397.3 440 399 423.8 403Z" fill="#995F1E" fill-rule="evenodd"/><path d="M298.6 147.8 296.9 145 295.2 142.5 293.5 140.4 291.8 138.6 290.1 137.3 288.4 136.3 286.7 135.7 285 135.6 283.3 135.7 281.6 136.3 279.9 137.3 278.2 138.6 276.5 140.4 274.8 142.5 273.1 145 269.7 151.1 221.4 249.6 223.6 251.4 225.5 253.7 226.9 256.3 227.5 258.1 228 261 227.9 264 227.5 265.9 226.5 268.6 225.5 270.3 223.6 272.6 221.3 274.5 218.7 275.9 215.9 276.7 214 277 211 276.9 208.3 276.3 138.9 418 137.9 420.6 137.2 423.1 136.7 425.5 136.4 427.8 136.4 429.9 136.7 432 137.2 434 137.9 435.9 138.9 437.7 140.1 439.4 141.6 440.9 143.3 442.4 145.2 443.8 147.4 445.1 149.9 446.3 155.5 448.3 165.9 451 177.7 453.9 189.5 456.4 200 458.4 210.4 460.1 220.9 461.7 231.4 463 241.8 464 252.3 464.9 261.4 465.4 271.9 465.8 281.1 466 290.2 466 300.7 465.7 312.5 465.2 324.2 464.4 336 463.3 346.5 462 357 460.5 368.7 458.6 380.5 456.4 392.3 453.9 404.1 451 414.5 448.3 420.1 446.3 422.6 445.1 424.8 443.8 426.7 442.4 428.4 440.9 429.9 439.4 431.1 437.7 432.1 435.9 432.8 434 433.3 432 433.6 429.9 433.6 427.8 433.3 425.5 432.8 423.1 432.1 420.6 429.9 415.3Z" fill="#E6B33C" fill-rule="evenodd"/><path d="M226.6 244.7 229.4 247.3 231.3 249.8 279.4 151.8 281.1 149 282.8 146.5 284.5 144.4 286.2 142.6 287.9 141.3 289.8 140.3 288.7 139.4 287.4 138.6 286.1 138.2 285 138.1 283.9 138.2 282.6 138.6 281.3 139.4 279.9 140.5 278.4 142 276.8 144 273.6 149.1ZM146.3 412.1 150.5 414.4 214.5 283.9 211.3 283.9 207.6 283.3 144.9 411.2Z" fill="#F6D47F" fill-rule="evenodd"/><path d="M284.3 138.2 286.2 140.5 287.9 143 291.3 149.1 421 413.6 421.6 413.3 425.1 411.2 298 152.2 294.8 146.3 293.2 144 291.6 142 290.1 140.5 288.7 139.4 287.4 138.6 286.1 138.2 285 138.1Z" fill="#DBA633" fill-rule="evenodd"/><path d="M138.9 418 137.2 423.1 136.7 425.5 136.4 427.8 136.4 429.9 136.7 432 137.2 434 137.9 435.9 138.9 437.7 140.1 439.4 141.6 440.9 143.3 442.4 145.2 443.8 147.4 445.1 152.5 447.3 155.5 448.3 163.3 450.4 179 454.2 193.4 457.2 207.8 459.7 222.2 461.8 236.6 463.5 251 464.8 265.4 465.6 279.8 466 295.5 465.9 311.2 465.3 325.6 464.3 341.3 462.7 355.7 460.7 371.4 458.1 385.7 455.3 400.1 452 414.5 448.3 417.5 447.3 422.6 445.1 424.8 443.8 426.7 442.4 428.4 440.9 429.9 439.4 431.1 437.7 432.1 435.9 432.8 434 433.3 432 433.6 429.9 433.6 427.8 433.3 425.5 432.8 423.1 432.1 420.6 431.1 418 428 411.4 424.8 413.8 422.6 415.1 417.5 417.3 414.5 418.3 404.1 421 393.6 423.6 383.1 425.8 372.7 427.9 353 431.1 343.9 432.3 333.4 433.5 315.1 435 305.9 435.5 295.5 435.9 285 436 273.2 435.9 262.8 435.5 252.3 434.9 241.8 434 231.4 433 219.6 431.5 209.1 429.9 196 427.7 181.6 424.7 168.6 421.7 155.5 418.3 149.9 416.3 147.4 415.1 145.2 413.8 142 411.4Z" fill="#B87428" fill-rule="evenodd"/><path d="M299.9 196.4 299.9 198.8 299.3 201.1 298.1 203.3 296.4 205.3 294.3 207.1 291.9 208.4 289.1 209.4 286.3 209.9 283.3 210 280.5 209.6 277.8 208.8 275.3 207.5 273.3 205.9 271.7 204 270.6 201.9 270.1 199.6 270.1 197.2 270.7 194.9 271.9 192.7 273.6 190.7 275.7 188.9 278.1 187.6 280.9 186.6 283.7 186.1 286.7 186 289.5 186.4 292.2 187.2 294.7 188.5 296.7 190.1 298.3 192 299.4 194.1Z" fill="#C98E27" fill-rule="evenodd"/><path d="M297.7 203.9 299.3 201.1 299.7 199.6 300 198 299.8 195.7 299.1 193.4 298.3 192 297.3 190.7 295.4 189 293.1 187.6 291.4 186.9 289.5 186.4 287.6 186.1 285.7 186 282.8 186.2 279.9 186.9 277.3 188 275.7 188.9 274.2 190.1 272.4 192 271.1 194.1 270.3 196.4 270.1 197.2 271.4 195.7 273.5 194 276 192.6 278.7 191.6 280.6 191.2 283.5 191 285.5 191.1 287.4 191.4 290.1 192.2 291.7 193 293.2 194 295.1 195.7 296.1 197 297.2 199.2 297.8 201.5Z" fill="#A8731C" fill-rule="evenodd"/><path d="M299.9 196.4 299.9 198.8 299.3 201.1 298.1 203.3 296.4 205.3 294.3 207.1 291.9 208.4 289.1 209.4 286.3 209.9 283.3 210 280.5 209.6 277.8 208.8 275.3 207.5 273.3 205.9 271.7 204 270.6 201.9 270.1 199.6 270.1 197.2 270.7 194.9 271.9 192.7 273.6 190.7 275.7 188.9 278.1 187.6 280.9 186.6 283.7 186.1 286.7 186 289.5 186.4 292.2 187.2 294.7 188.5 296.7 190.1 298.3 192 299.4 194.1Z" fill="none" stroke="#06273A" stroke-width="3.2" stroke-linejoin="round"/><path d="M339 246 338.8 247.3 338.4 248.6 337.7 249.8 336.7 250.8 335.4 251.7 334.1 252.3 332.6 252.7 331 252.8 329.4 252.7 327.9 252.3 326.6 251.7 325.3 250.8 324.3 249.8 323.6 248.6 323.2 247.3 323 246 323.2 244.7 323.6 243.4 324.3 242.2 325.3 241.2 326.6 240.3 327.9 239.7 329.4 239.3 331 239.2 332.6 239.3 334.1 239.7 335.4 240.3 336.7 241.2 337.7 242.2 338.4 243.4 338.8 244.7Z" fill="#C98E27" fill-rule="evenodd"/><path d="M337.7 249.7 338.6 248.2 339 246.4 338.9 245.1 338.6 243.8 337.9 242.6 337 241.5 335.9 240.6 334.1 239.7 332.6 239.3 331 239.2 329.4 239.3 327.9 239.7 326.1 240.6 325 241.5 324.1 242.6 323.4 243.8 323.1 245.2 323.8 244.4 324.9 243.5 327.2 242.4 329.8 242.1 331.3 242.2 332.8 242.6 334.6 243.5 336.4 245.1 337.5 247.1 337.8 248.4Z" fill="#A8731C" fill-rule="evenodd"/><path d="M339 246 338.8 247.3 338.4 248.6 337.7 249.8 336.7 250.8 335.4 251.7 334.1 252.3 332.6 252.7 331 252.8 329.4 252.7 327.9 252.3 326.6 251.7 325.3 250.8 324.3 249.8 323.6 248.6 323.2 247.3 323 246 323.2 244.7 323.6 243.4 324.3 242.2 325.3 241.2 326.6 240.3 327.9 239.7 329.4 239.3 331 239.2 332.6 239.3 334.1 239.7 335.4 240.3 336.7 241.2 337.7 242.2 338.4 243.4 338.8 244.7Z" fill="none" stroke="#06273A" stroke-width="3.2" stroke-linejoin="round"/><path d="M209.9 393.9 209.3 396 208.2 398 206.7 399.7 204.7 401.1 202.4 402.1 199.9 402.8 197.2 403.1 194.5 402.9 191.8 402.3 189.3 401.3 187 400 185.1 398.3 183.6 396.4 182.6 394.4 182.1 392.2 182.1 390.1 182.7 388 183.8 386 185.3 384.3 187.3 382.9 189.6 381.9 192.1 381.2 194.8 380.9 197.5 381.1 200.2 381.7 202.7 382.7 205 384 206.9 385.7 208.4 387.6 209.4 389.6 209.9 391.8Z" fill="#C98E27" fill-rule="evenodd"/><path d="M207.9 398.4 209.3 396 209.9 393.9 209.9 391.8 209.4 389.6 208.8 388.2 207.9 386.9 206.3 385.1 204.3 383.5 201.9 382.3 199.3 381.5 196.6 381 193 381.1 190.4 381.6 188 382.5 185.9 383.8 184.2 385.4 183.4 386.7 182.7 388 182.1 390.2 183.3 388.9 185.3 387.5 187.6 386.5 190.1 385.8 192.8 385.6 194.6 385.6 197.3 386.1 199.9 386.9 203 388.6 204.3 389.7 206 391.5 206.8 392.9 207.6 395 207.9 396.4Z" fill="#A8731C" fill-rule="evenodd"/><path d="M209.9 393.9 209.3 396 208.2 398 206.7 399.7 204.7 401.1 202.4 402.1 199.9 402.8 197.2 403.1 194.5 402.9 191.8 402.3 189.3 401.3 187 400 185.1 398.3 183.6 396.4 182.6 394.4 182.1 392.2 182.1 390.1 182.7 388 183.8 386 185.3 384.3 187.3 382.9 189.6 381.9 192.1 381.2 194.8 380.9 197.5 381.1 200.2 381.7 202.7 382.7 205 384 206.9 385.7 208.4 387.6 209.4 389.6 209.9 391.8Z" fill="none" stroke="#06273A" stroke-width="3.2" stroke-linejoin="round"/><path d="M380.4 386.9 380.4 388.6 380 390.3 379.2 391.8 378 393.3 376.5 394.5 374.8 395.5 372.9 396.2 370.9 396.6 368.8 396.6 366.8 396.3 364.9 395.7 363.3 394.8 361.8 393.7 360.7 392.3 359.9 390.7 359.6 389.1 359.6 387.4 360 385.7 360.8 384.2 362 382.7 363.5 381.5 365.2 380.5 367.1 379.8 369.1 379.4 371.2 379.4 373.2 379.7 375.1 380.3 376.7 381.2 378.2 382.3 379.3 383.7 380.1 385.3Z" fill="#C98E27" fill-rule="evenodd"/><path d="M378.9 392.3 380 390.3 380.4 388.6 380.4 386.9 379.9 384.7 378.6 382.8 377.3 381.5 375.6 380.5 373.8 379.8 371.2 379.4 369.1 379.4 367.1 379.8 365.2 380.5 362.9 381.9 361.6 383.2 360.5 384.7 359.8 386.3 359.6 387.3 360.9 385.9 362.5 384.8 364.2 383.9 366.2 383.3 367.6 383.1 369.6 383 372.3 383.5 373.5 383.9 375.2 384.8 377 386.4 378.1 387.8 378.7 389.4 378.9 391.1Z" fill="#A8731C" fill-rule="evenodd"/><path d="M380.4 386.9 380.4 388.6 380 390.3 379.2 391.8 378 393.3 376.5 394.5 374.8 395.5 372.9 396.2 370.9 396.6 368.8 396.6 366.8 396.3 364.9 395.7 363.3 394.8 361.8 393.7 360.7 392.3 359.9 390.7 359.6 389.1 359.6 387.4 360 385.7 360.8 384.2 362 382.7 363.5 381.5 365.2 380.5 367.1 379.8 369.1 379.4 371.2 379.4 373.2 379.7 375.1 380.3 376.7 381.2 378.2 382.3 379.3 383.7 380.1 385.3Z" fill="none" stroke="#06273A" stroke-width="3.2" stroke-linejoin="round"/><path d="M244.5 222 244.4 223.1 244 224.1 243.4 225.1 242.6 225.9 241.6 226.6 240.5 227.1 239.3 227.4 238 227.5 236.7 227.4 235.5 227.1 234.4 226.6 233.4 225.9 232.6 225.1 232 224.1 231.6 223.1 231.5 222 231.6 220.9 232 219.9 232.6 218.9 233.4 218.1 234.4 217.4 235.5 216.9 236.7 216.6 238 216.5 239.3 216.6 240.5 216.9 241.6 217.4 242.6 218.1 243.4 218.9 244 219.9 244.4 220.9Z" fill="#C98E27" fill-rule="evenodd"/><path d="M243.5 225 244.2 223.8 244.5 222.4 244.4 221.3 244.2 220.2 243.6 219.2 242.9 218.4 242 217.6 240.9 217.1 239.7 216.7 238.4 216.5 236.7 216.6 235.5 216.9 234.4 217.4 233.4 218.1 232.6 218.9 231.8 220.2 231.6 221.3 233.1 219.9 234.1 219.4 235.3 219 237.4 218.8 238.7 219 239.9 219.4 241.6 220.4 242.6 221.6 243.4 223.2Z" fill="#A8731C" fill-rule="evenodd"/><path d="M244.5 222 244.4 223.1 244 224.1 243.4 225.1 242.6 225.9 241.6 226.6 240.5 227.1 239.3 227.4 238 227.5 236.7 227.4 235.5 227.1 234.4 226.6 233.4 225.9 232.6 225.1 232 224.1 231.6 223.1 231.5 222 231.6 220.9 232 219.9 232.6 218.9 233.4 218.1 234.4 217.4 235.5 216.9 236.7 216.6 238 216.5 239.3 216.6 240.5 216.9 241.6 217.4 242.6 218.1 243.4 218.9 244 219.9 244.4 220.9Z" fill="none" stroke="#06273A" stroke-width="3.2" stroke-linejoin="round"/><path d="M429.9 415.3 432.1 420.6 432.8 423.1 433.3 425.5 433.6 427.8 433.6 429.9 433.3 432 432.8 434 432.1 435.9 431.1 437.7 429.9 439.4 428.4 440.9 426.4 442.7 458.7 421.4 460.4 419.9 461.9 418.4 463.1 416.7 464.1 414.9 464.8 413 465.3 411 465.6 408.9 465.6 406.8 465.3 404.5 464.8 402.1 463.1 397 460 390.4 457.4 392.4 457.3 392.1 456.1 393.2 454.7 394 454.6 393.9 454.1 394.3 452.1 395.3 449.5 396.3 446.5 397.3 440 399 423.8 403Z" fill="none" stroke="#06273A" stroke-width="3.4" stroke-linejoin="round"/><path d="M313.6 115.3 311.9 116.3 279.9 137.3 281.6 136.3 283.3 135.7 285 135.6 286.7 135.7 288.4 136.3 290.1 137.3 291.8 138.6 293.5 140.4 295.2 142.5 296.9 145 298.6 147.8 429.9 415.3 432.1 420.6 432.8 423.1 433.3 425.5 433.6 427.8 433.6 429.9 433.3 432 432.8 434 432.1 435.9 431.1 437.7 429.9 439.4 428.4 440.9 426.7 442.4 424.8 443.8 456.8 422.8 458.7 421.4 460.4 419.9 461.9 418.4 463.1 416.7 464.1 414.9 464.8 413 465.3 411 465.6 408.9 465.6 406.8 465.3 404.5 464.8 402.1 464.1 399.6 461.9 394.3 330.6 126.8 328.9 124 327.2 121.5 325.5 119.4 323.8 117.6 322.1 116.3 320.4 115.3 318.7 114.7 317 114.6 315.3 114.7Z" fill="none" stroke="#06273A" stroke-width="4" stroke-linejoin="round"/><path d="M138.9 418 137.2 423.1 136.7 425.5 136.4 427.8 136.4 429.9 136.7 432 137.2 434 137.9 435.9 138.9 437.7 140.1 439.4 141.6 440.9 143.3 442.4 145.2 443.8 147.4 445.1 152.5 447.3 155.5 448.3 163.3 450.4 179 454.2 193.4 457.2 207.8 459.7 222.2 461.8 236.6 463.5 251 464.8 265.4 465.6 279.8 466 295.5 465.9 311.2 465.3 325.6 464.3 341.3 462.7 355.7 460.7 371.4 458.1 385.7 455.3 400.1 452 414.5 448.3 417.5 447.3 422.6 445.1 424.8 443.8 426.7 442.4 428.4 440.9 429.9 439.4 431.1 437.7 432.1 435.9 432.8 434 433.3 432 433.6 429.9 433.6 427.8 433.3 425.5 432.8 423.1 432.1 420.6 431.1 418 428 411.4 424.8 413.8 422.6 415.1 417.5 417.3 414.5 418.3 404.1 421 393.6 423.6 383.1 425.8 372.7 427.9 353 431.1 343.9 432.3 333.4 433.5 315.1 435 305.9 435.5 295.5 435.9 285 436 273.2 435.9 262.8 435.5 252.3 434.9 241.8 434 231.4 433 219.6 431.5 209.1 429.9 196 427.7 181.6 424.7 168.6 421.7 155.5 418.3 149.9 416.3 147.4 415.1 145.2 413.8 142 411.4Z" fill="none" stroke="#06273A" stroke-width="3.6" stroke-linejoin="round"/><path d="M298.6 147.8 296.9 145 295.2 142.5 293.5 140.4 291.8 138.6 290.1 137.3 288.4 136.3 286.7 135.7 285 135.6 283.3 135.7 281.6 136.3 279.9 137.3 278.2 138.6 276.5 140.4 274.8 142.5 273.1 145 269.7 151.1 221.4 249.6 223.6 251.4 225.5 253.7 226.9 256.3 227.5 258.1 228 261 227.9 264 227.5 265.9 226.5 268.6 225.5 270.3 223.6 272.6 221.3 274.5 218.7 275.9 215.9 276.7 214 277 211 276.9 208.3 276.3 138.9 418 137.9 420.6 137.2 423.1 136.7 425.5 136.4 427.8 136.4 429.9 136.7 432 137.2 434 137.9 435.9 138.9 437.7 140.1 439.4 141.6 440.9 143.3 442.4 145.2 443.8 147.4 445.1 149.9 446.3 155.5 448.3 165.9 451 177.7 453.9 189.5 456.4 200 458.4 210.4 460.1 220.9 461.7 231.4 463 241.8 464 252.3 464.9 261.4 465.4 271.9 465.8 281.1 466 290.2 466 300.7 465.7 312.5 465.2 324.2 464.4 336 463.3 346.5 462 357 460.5 368.7 458.6 380.5 456.4 392.3 453.9 404.1 451 414.5 448.3 420.1 446.3 422.6 445.1 424.8 443.8 426.7 442.4 428.4 440.9 429.9 439.4 431.1 437.7 432.1 435.9 432.8 434 433.3 432 433.6 429.9 433.6 427.8 433.3 425.5 432.8 423.1 432.1 420.6 429.9 415.3Z" fill="none" stroke="#06273A" stroke-width="4.6" stroke-linejoin="round"/><path d="M236 340 235.7 342 234.7 344 233.1 345.8 231 347.4 228.4 348.7 225.5 349.7 222.3 350.3 219 350.5 215.7 350.3 212.5 349.7 209.6 348.7 207 347.4 204.9 345.8 203.3 344 202.3 342 202 340 202.3 338 203.3 336 204.9 334.2 207 332.6 209.6 331.3 212.5 330.3 215.7 329.7 219 329.5 222.3 329.7 225.5 330.3 228.4 331.3 231 332.6 233.1 334.2 234.7 336 235.7 338Z" fill="#F4968A" fill-rule="evenodd" opacity=".75"/><path d="M368 340 367.7 342 366.7 344 365.1 345.8 363 347.4 360.4 348.7 357.5 349.7 354.3 350.3 351 350.5 347.7 350.3 344.5 349.7 341.6 348.7 339 347.4 336.9 345.8 335.3 344 334.3 342 334 340 334.3 338 335.3 336 336.9 334.2 339 332.6 341.6 331.3 344.5 330.3 347.7 329.7 351 329.5 354.3 329.7 357.5 330.3 360.4 331.3 363 332.6 365.1 334.2 366.7 336 367.7 338Z" fill="#F4968A" fill-rule="evenodd" opacity=".75"/><path d="M268 302 267.7 306 267.3 308.6 266.1 312.2 265.1 314.5 263.9 316.5 261.8 319 259.4 320.9 257.6 321.8 254.9 322.5 253.1 322.5 250.4 321.8 248.6 320.9 247 319.8 244.8 317.4 242.9 314.5 241.9 312.2 241.1 309.8 240.5 307.3 240 303.3 240 300.7 240.3 298 241.1 294.2 242.4 290.6 243.5 288.5 244.8 286.6 246.2 285 247.8 283.6 250.4 282.2 253.1 281.5 254.9 281.5 256.7 281.9 259.4 283.1 261 284.2 262.5 285.7 263.9 287.5 265.1 289.5 266.6 292.9 267.5 296.7 267.9 299.3Z" fill="#06273A" fill-rule="evenodd"/><path d="M264.7 293.4 264.6 294.6 264.3 295.8 263.7 297 263 297.9 262.1 298.7 261.1 299.3 260 299.7 258.9 299.8 257.8 299.7 256.7 299.3 255.7 298.7 254.8 297.9 254.1 297 253.5 295.8 253.2 294.6 253.1 293.4 253.2 292.2 253.5 291 254.1 289.8 254.8 288.9 255.7 288.1 256.7 287.5 257.8 287.1 258.9 287 260 287.1 261.1 287.5 262.1 288.1 263 288.9 263.7 289.8 264.3 291 264.6 292.2Z" fill="#FFFFFF" fill-rule="evenodd"/><path d="M252.1 311.2 251.9 312.2 251.3 313 250.5 313.6 249.5 313.8 248.5 313.6 247.7 313 247.1 312.2 246.9 311.2 247.1 310.2 247.7 309.4 248.5 308.8 249.5 308.6 250.5 308.8 251.3 309.4 251.9 310.2Z" fill="#FFFFFF" fill-rule="evenodd"/><path d="M330 302 329.7 306 329.3 308.6 328.1 312.2 327.1 314.5 325.9 316.5 323.8 319 321.4 320.9 319.6 321.8 316.9 322.5 315.1 322.5 312.4 321.8 310.6 320.9 308.2 319 306.8 317.4 304.9 314.5 303.9 312.2 303.1 309.8 302.5 307.3 302 303.3 302 300.7 302.3 298 303.1 294.2 304.4 290.6 305.5 288.5 306.8 286.6 309 284.2 310.6 283.1 312.4 282.2 315.1 281.5 316.9 281.5 318.7 281.9 321.4 283.1 323 284.2 324.5 285.7 325.9 287.5 327.1 289.5 328.6 292.9 329.5 296.7 329.9 299.3Z" fill="#06273A" fill-rule="evenodd"/><path d="M326.7 293.4 326.6 294.6 326.3 295.8 325.7 297 325 297.9 324.1 298.7 323.1 299.3 322 299.7 320.9 299.8 319.8 299.7 318.7 299.3 317.7 298.7 316.8 297.9 316.1 297 315.5 295.8 315.2 294.6 315.1 293.4 315.2 292.2 315.5 291 316.1 289.8 316.8 288.9 317.7 288.1 318.7 287.5 319.8 287.1 320.9 287 322 287.1 323.1 287.5 324.1 288.1 325 288.9 325.7 289.8 326.3 291 326.6 292.2Z" fill="#FFFFFF" fill-rule="evenodd"/><path d="M314.1 311.2 313.9 312.2 313.3 313 312.5 313.6 311.5 313.8 310.5 313.6 309.7 313 309.1 312.2 308.9 311.2 309.1 310.2 309.7 309.4 310.5 308.8 311.5 308.6 312.5 308.8 313.3 309.4 313.9 310.2Z" fill="#FFFFFF" fill-rule="evenodd"/><path d="M237 268Q251 262 266 266" fill="none" stroke="#06273A" stroke-width="5.5" stroke-linecap="round" stroke-linejoin="round"/><path d="M304 260Q319 250 333 258" fill="none" stroke="#06273A" stroke-width="5.5" stroke-linecap="round" stroke-linejoin="round"/><path d="M262 336 266.5 340 270.7 343.3 272.8 344.7 276.9 347.1 280.8 348.9 284.5 350.1 288.1 350.6 291.5 350.5 294.8 349.8 296.3 349.2 299.3 347.6 302.2 345.3 304.9 342.4 307.4 338.9 309.8 334.8 312 330 307.2 332.9 303.9 334.6 300.7 336.1 297.4 337.3 294.1 338.2 290.8 339 287.5 339.5 284.2 339.8 280.8 339.8 275.7 339.5 272.3 339 268.9 338.2 265.5 337.2Z" fill="#06273A" fill-rule="evenodd" stroke="#06273A" stroke-width="3.5" stroke-linejoin="round"/><path d="M293.1 350.2 289.1 350 286.1 350.4 289.8 350.6Z" fill="#EF7D62" fill-rule="evenodd"/><path d="M168.6 434.7 168.8 437.8 169.4 439.5 170 440.4 170.8 441.2 171.6 441.8 172.6 442.2 173.7 442.4 176.1 442.2 178.7 441.2 181.2 439.6 183.5 437.3 185.1 435.3 186.4 433.1 187.4 430.8 188 428.5 188.3 425.6 188 423.7 187.4 422 186.4 420.6 188.1 416 188.7 413.3 188.7 411.9 188.6 410.5 188.1 407.8 187 405.2 185.4 402.9 183.4 401 181.1 399.5 173.3 396.2 170.6 395.5 167.9 395.2 165.1 395.5 162.5 396.3 160 397.7 157.9 399.4 157 400.5 156.1 401.6 154.9 404.1 151.3 412.8 150.5 415.5 150.3 418.2 150.6 421 151.4 423.7 152.8 426.1 154.5 428.2 155.6 429.1 157.9 430.7 165.7 433.9Z" fill="#FFF6E3" fill-rule="evenodd" stroke="#06273A" stroke-width="5.2" stroke-linejoin="round"/><path d="M169.7 411.3L174.2 400.4" fill="none" stroke="#06273A" stroke-width="3.6" stroke-linecap="round" stroke-linejoin="round"/><path d="M161 407.8L165.4 396.9" fill="none" stroke="#06273A" stroke-width="3.6" stroke-linecap="round" stroke-linejoin="round"/><path d="M509.1 262 510.1 262 510.8 261.2 529.8 222.1 542 185.9 541.9 166.8 541.7 166.2 541.4 165.7 540.9 165.4 540.4 165.3 539.8 165.4 536 169.4 535.2 169.7 534.5 169.5 534 169.1 533.7 168.5 533.7 163.1 533.3 162.4 532.6 162.1 531.9 162.1 531.3 162.5 517.8 176.3 501.6 210.7 487.9 252.2 488.1 253.2 488.7 253.8ZM515.7 229.8 515.1 230.6 514.3 231.3 513.4 231.8 512.4 232.1 511.4 232.2 510.4 232.1 509.4 231.8 508.5 231.3 507.7 230.7 507.1 229.9 506.6 229 506.3 228 506.2 227 506.3 226 506.5 225 507 224.1 507.7 223.3 508.4 222.7 509.3 222.2 510.3 221.9 511.3 221.8 512.4 221.9 513.3 222.1 514.2 222.6 515 223.3 515.7 224 516.2 224.9 516.5 225.9 516.6 226.9 516.5 228 516.2 228.9ZM525.8 205.2 525.2 206.1 524.5 206.8 523.7 207.4 522.7 207.8 521.7 208 520.7 208 519.7 207.8 518.7 207.4 517.9 206.8 517.2 206.1 516.6 205.3 516.2 204.3 516 203.3 516 202.3 516.2 201.3 516.5 200.4 517.1 199.5 517.8 198.8 518.7 198.2 519.6 197.8 520.6 197.6 521.6 197.6 522.6 197.8 523.6 198.2 524.4 198.7 525.2 199.4 525.7 200.3 526.1 201.2 526.3 202.2 526.4 203.2 526.2 204.3Z" fill="#E4EAEF" fill-rule="evenodd" stroke="#06273A" stroke-width="4.2" stroke-linejoin="round"/><path d="M498 246.6L509.7 213.8" fill="none" stroke="#B9C4CC" stroke-width="3.4" stroke-linecap="round" stroke-linejoin="round"/><path d="M489.5 258 473.7 297 473.3 298.5 473.1 300 473.5 302.4 474.1 303.8 475 305.1 476.1 306.2 477.4 307 479.5 307.9 481 308.4 483.3 308.5 485.6 307.9 486.9 307.1 488.1 306.1 489.5 304.2 505.6 264.5 506 263 506.2 261.5 506 259.9 505.5 258.4 504.8 257 503.8 255.8 502.6 254.9 501.2 254.1 499.1 253.3 496.8 253 495.2 253.2 493.7 253.6 492.4 254.4 491.2 255.4 490.2 256.6Z" fill="#8A5A2B" fill-rule="evenodd" stroke="#06273A" stroke-width="4.2" stroke-linejoin="round"/><path d="M488.8 249.9 488 252.1 488.1 253.8 488.7 255.3 489.3 256 490.3 256.8 506.3 263.1 507.6 263.2 508.8 262.9 510.2 261.9 511 260.9 511.9 258.3 511.9 256.6 511.2 255.1 510.4 254.1 509.7 253.7 493.7 247.3 492.4 247.2 490.8 247.7 489.7 248.5Z" fill="#AEB9C1" fill-rule="evenodd" stroke="#06273A" stroke-width="3.6" stroke-linejoin="round"/><path d="M489.1 289.9 489.3 288.8 489.1 287.7 488.4 286.8 487.5 286.1 486.4 285.9 485.3 286.2 484.3 286.8 483.7 287.7 483.5 288.8 483.7 290 484.4 290.9 485.3 291.5 486.4 291.7 487.5 291.5 488.5 290.9Z" fill="#FFF6E3" fill-rule="evenodd"/><path d="M484.2 302 484.4 300.9 484.2 299.8 483.5 298.9 482.6 298.2 481.5 298 480.4 298.3 479.4 298.9 478.8 299.8 478.6 300.9 478.8 302.1 479.5 303 480.4 303.6 481.5 303.8 482.6 303.6 483.6 303Z" fill="#FFF6E3" fill-rule="evenodd"/><path d="M495.2 243.4 494.3 241.9 493.4 241.1 491.8 240 490.6 239.5 489.2 239.1 486.9 238.7 484.5 238.7 482.8 238.8 480.3 239.3 478.7 239.8 476.4 240.7 474.3 241.9 473.2 242.8 471.7 244.3 471 245.4 470.2 247 470 248.1 470 249.1 470.4 250.7 471 251.6 472.6 253.2 473.7 253.9 475.5 254.6 475.1 257.6 475.2 266 475.7 268.8 476.8 271.3 478.3 273.6 480.3 275.6 482.6 277.1 485.2 278.2 486.5 278.5 489.3 278.8 498.7 278.8 501.5 278.5 502.8 278.2 504.1 277.7 506.6 276.4 508.7 274.7 510.5 272.5 511.8 270.1 512.3 268.8 512.8 266 512.9 264.7 512.8 256.2 512.3 253.5 511.2 250.9 510.5 249.7 509.7 248.6 507.7 246.6 505.4 245.1 504.1 244.5 502.8 244 500.1 243.5Z" fill="#FFF6E3" fill-rule="evenodd" stroke="#06273A" stroke-width="5.2" stroke-linejoin="round"/><path d="M497.5 262.3L509.3 262.3" fill="none" stroke="#06273A" stroke-width="3.6" stroke-linecap="round" stroke-linejoin="round"/><path d="M497.5 271.7L509.3 271.7" fill="none" stroke="#06273A" stroke-width="3.6" stroke-linecap="round" stroke-linejoin="round"/></svg>
